<svg width="150" height="72" viewBox="0 0 150 72" fill="none" xmlns="http://www.w3.org/2000/svg">
<g clip-path="url(#clip0_279_224)">
<path d="M85.1758 23.0031C83.4226 20.7899 77.5626 21.3224 72.0871 24.1927C66.6116 27.0629 63.5941 31.1839 65.3473 33.3972C67.1004 35.6105 72.9605 35.0779 78.436 32.2076C83.9115 29.3374 86.929 25.2164 85.1758 23.0031Z" fill="#EFC5CF"/>
<path d="M78.8308 30.2319C83.9884 31.464 90.2543 26.688 92.826 19.5642C95.3977 12.4405 93.3014 5.66672 88.1438 4.43456C82.9862 3.20241 76.7203 7.97846 74.1486 15.1022C71.5769 22.2259 73.6732 28.9997 78.8308 30.2319Z" fill="url(#paint0_linear_279_224)"/>
<path d="M87.064 25.9695C86.7922 22.5157 78.9485 20.113 69.5446 20.6028C60.1408 21.0926 52.7378 24.2895 53.0097 27.7432C53.2815 31.1969 61.1252 33.5997 70.529 33.1099C79.9329 32.62 87.3358 29.4232 87.064 25.9695Z" fill="url(#paint1_linear_279_224)"/>
<path d="M86.9903 13.243C90.0024 21.4053 87.9738 29.114 82.4595 30.4604C76.9451 31.8072 70.033 26.2819 67.0209 18.1194C64.0088 9.95706 66.0374 2.24847 71.5517 0.901854C77.066 -0.444758 83.9782 5.08054 86.9903 13.243Z" fill="url(#paint2_linear_279_224)"/>
<path fill-rule="evenodd" clip-rule="evenodd" d="M68.1066 20.6786C68.5687 20.6406 69.0364 20.6091 69.5092 20.5845C78.9132 20.0946 86.7568 22.4974 87.0288 25.9511C87.0513 26.2414 87.0201 26.5299 86.938 26.8151C86.3532 27.8833 85.5949 28.7689 84.6762 29.4189C84.4375 29.5775 84.1826 29.7328 83.9124 29.885C83.4492 30.1256 82.9524 30.3133 82.4238 30.4424C77.5122 31.6415 71.4925 27.3897 68.1066 20.6786Z" fill="url(#paint3_linear_279_224)"/>
<path d="M9.7448 49.425C12.5577 49.425 15.0894 50.3894 15.0894 52.9882C15.0894 55.6034 12.7587 56.5677 7.55473 56.5677C5.94734 56.5677 3.45589 56.3226 3.45589 56.3226L1.5873 56.5677V44.8158L3.45589 44.5542H13.8436V46.0907L11.955 46.3522V44.8158H3.45589V50.4221C5.76651 50.275 7.31362 49.425 9.7448 49.425ZM7.85612 56.3226C11.8545 56.3226 13.2007 54.6227 13.2007 53.0046C13.2007 50.9614 11.6134 49.7846 9.7448 49.6702C7.31362 49.6702 5.76651 50.5365 3.45589 50.6672V56.061C3.45589 56.061 6.26882 56.3226 7.85612 56.3226ZM26.1994 47.6271L28.088 47.3656V56.3226L26.1994 56.5677V55.587C25.1144 56.2572 23.7883 56.6004 22.422 56.5677C19.2876 56.5677 16.776 55.0477 16.776 51.9748C16.776 48.902 19.2876 47.3656 22.422 47.3656C23.7883 47.3329 25.1144 47.6925 26.1994 48.3626V47.6271ZM23.0448 56.3226C24.3107 56.2735 25.476 55.7505 26.1994 54.9169V49.2779C25.0541 48.2809 23.4668 47.6925 21.7991 47.6271C19.2876 47.6271 18.6446 49.9317 18.6446 51.9748C18.6446 55.0477 21.1562 56.3226 23.0448 56.3226ZM37.8935 47.6271L39.7822 47.3656V56.3226L37.8935 56.5677V47.8886H32.8301C32.6091 49.7519 32.5288 51.6316 32.5489 53.5112C32.5489 55.5544 31.283 56.5677 29.7158 56.5677L29.4144 56.3226C30.9816 56.3226 32.2274 55.5544 32.2274 53.2497C32.1872 51.3701 32.3077 49.4904 32.5489 47.6271H37.8935ZM51.2757 47.6271L53.1644 47.3656V56.3226L51.2757 56.5677V55.587C50.1908 56.2572 48.8647 56.6004 47.4984 56.5677C44.364 56.5677 41.8524 55.0477 41.8524 51.9748C41.8524 48.902 44.364 47.3656 47.4984 47.3656C48.8647 47.3329 50.1908 47.6925 51.2757 48.3626V47.6271ZM48.1212 56.3226C49.3871 56.2735 50.5524 55.7505 51.2757 54.9169V49.2779C50.1305 48.2809 48.5432 47.6925 46.8755 47.6271C44.364 47.6271 43.721 49.9317 43.721 51.9748C43.721 55.0477 46.2326 56.3226 48.1212 56.3226ZM63.7933 47.6271L65.682 47.3656V56.3226L63.7933 56.5677V50.6999C61.6032 50.6999 59.7145 51.7133 57.5044 51.7133V56.3226L55.6358 56.5677V47.6271L57.5044 47.3656V51.4681C59.7145 51.4681 61.6032 50.4384 63.7933 50.4384V47.6271ZM77.1759 54.7861L77.4772 55.2928C76.5329 56.061 74.7045 56.5677 73.3985 56.5677C70.2641 56.5677 67.7525 55.0477 67.7525 51.9748C67.7525 48.902 70.2641 47.3656 73.3985 47.3656C74.6241 47.3492 75.8297 47.6271 76.8544 48.1665L76.2516 49.2125C75.4881 48.2482 74.1821 47.6598 72.7756 47.6271C70.2641 47.6271 69.6211 49.9317 69.6211 51.9748C69.6211 55.0477 72.1528 56.3226 74.0214 56.3226C75.3073 56.2408 76.4726 55.6688 77.1759 54.7861ZM95.4575 51.223C98.6321 51.5335 100.641 54.8515 100.641 56.3226L99.255 56.5677C99.255 55.3092 98.1499 51.5662 95.0958 51.4681L93.9305 52.269V56.3226L92.0418 56.5677V52.269L90.8563 51.4681C87.8023 51.5662 86.6972 55.3092 86.6972 56.5677L85.3109 56.3226C85.3109 54.8515 87.3201 51.5335 90.5148 51.223L85.13 47.5454L85.3309 47.3656L90.9568 51.2066L92.0418 51.9421V47.6271L93.9104 47.3656V51.9421L94.9954 51.2066L100.641 47.3656L100.842 47.5454L95.4575 51.223ZM110.767 47.6271L112.656 47.3656V56.3226L110.767 56.5677V50.1279L104.478 56.2408V56.3226L102.61 56.5677V47.6271L104.478 47.3656V55.8486L110.767 49.7192V47.6271ZM121.256 51.1576C122.683 51.5172 123.788 52.3181 123.788 53.7564C123.788 55.8159 121.196 56.5677 118.444 56.5677C115.53 56.5677 114.284 55.5544 114.284 55.5544L114.586 55.0477C115.631 55.8322 117.017 56.2899 118.444 56.3226C120.875 56.3226 121.899 55.0477 121.899 53.7564C121.899 52.0729 120.634 51.2066 119.066 51.2066H117.419V50.9451H119.388C120.634 50.9451 121.256 50.4384 121.256 49.4087C121.256 48.1338 119.93 47.6271 118.122 47.6271C117.178 47.6107 116.253 47.8886 115.53 48.3953L115.209 47.8886C115.209 47.8886 116.153 47.3656 118.444 47.3656C120.875 47.3656 123.145 47.8886 123.145 49.4087C123.145 50.6345 122.141 51.0432 121.256 51.1576ZM134.019 47.6271L135.907 47.3656V56.3226L134.019 56.5677V50.6999C131.829 50.6999 129.94 51.7133 127.73 51.7133V56.3226L125.861 56.5677V47.6271L127.73 47.3656V51.4681C129.94 51.4681 131.829 50.4384 134.019 50.4384V47.6271ZM146.537 47.6271L148.426 47.3656V56.3226L146.537 56.5677V50.1279L140.248 56.2408V56.3226L138.38 56.5677V47.6271L140.248 47.3656V55.8486L146.537 49.7192V47.6271Z" fill="black"/>
<path d="M32.6023 65.9187L33.3187 65.8195V70.2833L32.6023 70.3763V66.0179H29.3785V70.2833L28.6697 70.3763V65.9187L29.3785 65.8195V65.9187H32.6023ZM36.3939 66.8859C37.5828 66.8859 38.5431 67.4686 38.5431 68.6342C38.5431 69.7998 37.5828 70.3763 36.3939 70.3763C35.205 70.3763 34.2522 69.7998 34.2522 68.6342C34.2522 67.4686 35.205 66.8859 36.3939 66.8859ZM36.6301 70.2833C37.5828 70.2833 37.8267 69.4092 37.8267 68.6342C37.8267 67.4686 36.874 66.9851 36.1576 66.9851C35.205 66.9851 34.9611 67.8592 34.9611 68.6342C34.9611 69.7998 35.9137 70.2833 36.6301 70.2833ZM41.4807 65.3359C42.5477 65.3359 43.508 66.1109 43.508 68.6342C43.508 69.7998 42.5477 70.3763 41.3588 70.3763C40.1699 70.3763 39.2172 69.7998 39.2172 68.6342C39.2172 67.4686 40.1699 66.8859 41.3588 66.8859C42.159 66.8859 42.8449 67.1525 43.2184 67.6732C43.0431 66.0861 42.3876 65.5281 41.4807 65.5281C40.1699 65.5281 39.6897 66.0179 39.6897 66.0179L39.5678 65.6273C39.5678 65.6273 40.1699 65.3359 41.4807 65.3359ZM41.595 70.2833C42.5477 70.2833 42.7916 69.4092 42.7916 68.6342C42.7916 67.4686 41.8389 66.9851 41.1225 66.9851C40.1699 66.9851 39.926 67.8592 39.926 68.6342C39.926 69.7998 40.8786 70.2833 41.595 70.2833ZM46.5717 65.3359C47.6387 65.3359 48.599 66.1109 48.599 68.6342C48.599 69.7998 47.6387 70.3763 46.4498 70.3763C45.2609 70.3763 44.3082 69.7998 44.3082 68.6342C44.3082 67.4686 45.2609 66.8859 46.4498 66.8859C47.25 66.8859 47.9359 67.1525 48.3093 67.6732C48.1341 66.0861 47.4786 65.5281 46.5717 65.5281C45.2608 65.5281 44.7807 66.0179 44.7807 66.0179L44.6588 65.6273C44.6588 65.6273 45.2608 65.3359 46.5717 65.3359ZM46.686 70.2833C47.6387 70.2833 47.8826 69.4092 47.8826 68.6342C47.8826 67.4686 46.9299 66.9851 46.2135 66.9851C45.2608 66.9851 45.017 67.8592 45.017 68.6342C45.017 69.7998 45.9696 70.2833 46.686 70.2833ZM51.7386 70.2833C52.2263 70.2524 52.6684 70.0354 52.9351 69.7006L53.0494 69.8928C52.6912 70.1842 51.9977 70.3825 51.5023 70.3825C50.382 70.3825 49.4674 69.8618 49.3684 68.8264C49.3607 68.7644 49.3607 68.7024 49.3607 68.6342C49.3607 67.4686 50.3134 66.8859 51.5023 66.8859C51.5633 66.8859 51.6319 66.8921 51.6928 66.8921C51.7157 66.8921 51.7386 66.8983 51.7614 66.8983C51.7995 66.9045 51.8376 66.9045 51.8757 66.9107C51.9062 66.9107 51.9291 66.9169 51.9596 66.9169C51.9901 66.9231 52.0205 66.9293 52.051 66.9355C52.0815 66.9417 52.112 66.9479 52.1425 66.9479C52.173 66.9541 52.1958 66.9603 52.2263 66.9665C52.2568 66.9727 52.2873 66.9851 52.3102 66.9913C52.3406 66.9975 52.3635 67.0037 52.394 67.0161C52.4169 67.0223 52.4473 67.0347 52.4778 67.0409C52.5007 67.0533 52.5236 67.0595 52.5464 67.0657C52.5769 67.0781 52.6074 67.0905 52.6302 67.1029C52.6531 67.1153 52.676 67.1215 52.6988 67.1339C52.7293 67.1463 52.7522 67.1587 52.775 67.1711C52.7903 67.1773 52.8055 67.1835 52.8132 67.1897C53.2476 67.4376 53.5372 67.822 53.6058 68.2436H52.9351C51.9291 68.2436 51.0679 68.6032 50.0695 68.628V68.6342C50.0695 69.7998 51.0222 70.2833 51.7386 70.2833ZM51.266 66.9851C50.3515 66.9851 50.0924 67.7848 50.0771 68.535C51.045 68.504 51.891 68.163 52.8665 68.1506C52.8132 67.946 52.7141 67.7538 52.5769 67.5802C52.5388 67.5306 52.4931 67.4872 52.455 67.45C52.4473 67.4438 52.4321 67.4314 52.4245 67.4252C52.394 67.3942 52.3559 67.3632 52.3178 67.3322C52.3025 67.326 52.2873 67.3136 52.2797 67.3074C52.2339 67.2765 52.1882 67.2455 52.1349 67.2145C52.0815 67.1835 52.0282 67.1587 51.9748 67.1401C51.9672 67.1339 51.952 67.1277 51.9367 67.1215C51.8986 67.1029 51.8529 67.0905 51.8072 67.0719C51.7995 67.0719 51.7843 67.0657 51.7767 67.0657C51.7233 67.0471 51.67 67.0347 51.6166 67.0223C51.609 67.0223 51.5938 67.0161 51.5861 67.0161C51.5404 67.0099 51.5023 67.0037 51.4566 66.9975C51.4413 66.9975 51.4261 66.9913 51.4185 66.9913C51.3651 66.9851 51.3118 66.9851 51.266 66.9851ZM56.418 66.8859C57.6069 66.8859 58.5672 67.4686 58.5672 68.6342C58.5672 69.7998 57.6069 70.3763 56.418 70.3763C55.8998 70.3887 55.3968 70.2585 54.9852 70.0044V71.4489L54.2764 71.5419V67.0843L54.9852 66.9851V67.264C55.3968 67.0099 55.8998 66.8735 56.418 66.8859ZM56.6543 70.2833C57.6069 70.2833 57.8508 69.4092 57.8508 68.6342C57.8508 67.4686 56.8981 66.9851 56.1817 66.9851C55.7016 67.0037 55.2596 67.1959 54.9852 67.5182V69.651C55.4196 70.0292 56.0217 70.2586 56.6543 70.2833ZM63.0028 68.349C64.2069 68.4668 64.9691 69.7254 64.9691 70.2833L64.4432 70.3763C64.4432 69.899 64.024 68.4792 62.8656 68.442L62.4235 68.7458V70.2833L61.7072 70.3763V68.7458L61.2575 68.442C60.0991 68.4792 59.6799 69.899 59.6799 70.3763L59.154 70.2833C59.154 69.7254 59.9162 68.4668 61.1279 68.349L59.0854 66.9541L59.1617 66.8859L61.2956 68.3428L61.7072 68.6218V66.9851L62.4159 66.8859V68.6218L62.8275 68.3428L64.9691 66.8859L65.0453 66.9541L63.0028 68.349ZM67.1941 68.3552C68.4059 68.4668 69.1223 69.7316 69.1223 70.2895L68.6421 70.3763C68.6421 69.899 68.223 68.4792 67.0645 68.4482L66.4244 68.8822V70.2895L65.7156 70.3825V66.9913L66.4244 66.8921V68.7582L67.0264 68.349L69.1604 66.8859L69.2442 66.9603L67.1941 68.3552ZM73.3278 66.9851L74.0442 66.8859V70.2833L73.3278 70.3763V70.0044C72.9163 70.2585 72.4133 70.3887 71.895 70.3763C70.7061 70.3763 69.7535 69.7998 69.7535 68.6342C69.7535 67.4686 70.7061 66.8859 71.895 66.8859C72.4133 66.8735 72.9163 67.0099 73.3278 67.264V66.9851ZM72.1313 70.2833C72.6114 70.2648 73.0535 70.0664 73.3278 69.7502V67.6112C72.8934 67.2331 72.2913 67.0099 71.6588 66.9851C70.7061 66.9851 70.4622 67.8592 70.4622 68.6342C70.4622 69.7998 71.4149 70.2833 72.1313 70.2833ZM80.5916 66.9851L81.308 66.8859V70.2833L80.5916 70.3763V67.9336L78.2061 70.2523V70.2833L77.4973 70.3763V66.9851L78.2061 66.8859V70.1036L80.5916 67.7786V66.9851ZM86.903 66.8859C88.0919 66.8859 89.0522 67.4686 89.0522 68.6342C89.0522 69.7998 88.0919 70.3763 86.903 70.3763C86.3848 70.3887 85.8817 70.2585 85.4702 70.0044V71.4489L84.7614 71.5419V67.0843L85.4702 66.9851V67.264C85.8817 67.0099 86.3848 66.8735 86.903 66.8859ZM87.1393 70.2833C88.0919 70.2833 88.3358 69.4092 88.3358 68.6342C88.3358 67.4686 87.3831 66.9851 86.6667 66.9851C86.1866 67.0037 85.7446 67.1959 85.4702 67.5182V69.651C85.9046 70.0292 86.5067 70.2586 87.1393 70.2833ZM93.2591 66.9851L93.9755 66.8859V70.2833L93.2591 70.3763V70.0044C92.8476 70.2585 92.3446 70.3887 91.8263 70.3763C90.6374 70.3763 89.6848 69.7998 89.6848 68.6342C89.6848 67.4686 90.6374 66.8859 91.8263 66.8859C92.3446 66.8735 92.8476 67.0099 93.2591 67.264V66.9851ZM92.0626 70.2833C92.5427 70.2648 92.9848 70.0664 93.2591 69.7502V67.6112C92.8247 67.2331 92.2226 67.0099 91.5901 66.9851C90.6374 66.9851 90.3935 67.8592 90.3935 68.6342C90.3935 69.7998 91.3462 70.2833 92.0626 70.2833ZM97.2378 68.3242C97.7789 68.4606 98.198 68.7644 98.198 69.31C98.198 70.0912 97.2149 70.3763 96.1708 70.3763C95.0657 70.3763 94.5932 69.992 94.5932 69.992L94.7075 69.7998C95.1038 70.0974 95.6297 70.2709 96.1708 70.2833C97.0929 70.2833 97.4816 69.7998 97.4816 69.31C97.4816 68.6714 97.0015 68.3428 96.407 68.3428H95.7821V68.2436H96.529C97.0015 68.2436 97.2378 68.0514 97.2378 67.6608C97.2378 67.1773 96.7347 66.9851 96.0488 66.9851C95.6906 66.9789 95.3401 67.0843 95.0657 67.2765L94.9438 67.0843C94.9438 67.0843 95.302 66.8859 96.1708 66.8859C97.0929 66.8859 97.9541 67.0843 97.9541 67.6608C97.9541 68.1258 97.5731 68.2808 97.2378 68.3242ZM102.201 68.3242C102.734 68.4606 103.153 68.7644 103.153 69.31C103.153 70.0912 102.437 70.3763 100.89 70.3763C100.486 70.3701 100.089 70.3329 99.6932 70.2833L98.9844 70.3763V66.9851L99.6932 66.8859H101.362C102.094 66.8859 102.917 67.0843 102.917 67.6608C102.917 68.1258 102.536 68.2808 102.201 68.3242ZM99.6932 66.9851V68.2436H101.484C101.964 68.2436 102.201 68.0514 102.201 67.6608C102.201 67.1773 101.72 66.9851 101.248 66.9851H99.6932ZM100.89 70.2833C102.079 70.2833 102.437 69.7998 102.437 69.31C102.437 68.6714 101.964 68.3428 101.362 68.3428H99.6932V70.1842C100.089 70.2399 100.486 70.2709 100.89 70.2833ZM107.043 66.9851L107.759 66.8859V70.2833L107.043 70.3763V67.9336L104.657 70.2523V70.2833L103.949 70.3763V66.9851L104.657 66.8859V70.1036L107.043 67.7786V66.9851ZM112.104 66.9851V67.0843H110.557V70.2833L109.84 70.3763V67.0843H108.293V66.9851H109.84L110.557 66.8859V66.9851H112.104ZM115.728 66.9851L116.445 66.8859V70.2833L115.728 70.3763V67.9336L113.343 70.2523V70.2833L112.634 70.3763V66.9851L113.343 66.8859V70.1036L115.728 67.7786V66.9851ZM119.608 70.2833C120.096 70.2524 120.538 70.0354 120.804 69.7006L120.919 69.8928C120.561 70.1842 119.867 70.3825 119.372 70.3825C118.251 70.3825 117.337 69.8618 117.238 68.8264C117.23 68.7644 117.23 68.7024 117.23 68.6342C117.23 67.4686 118.183 66.8859 119.372 66.8859C119.433 66.8859 119.501 66.8921 119.562 66.8921C119.585 66.8921 119.608 66.8983 119.631 66.8983C119.669 66.9045 119.707 66.9045 119.745 66.9107C119.776 66.9107 119.798 66.9169 119.829 66.9169C119.859 66.9231 119.89 66.9293 119.92 66.9355C119.951 66.9417 119.981 66.9479 120.012 66.9479C120.042 66.9541 120.065 66.9603 120.096 66.9665C120.126 66.9727 120.157 66.9851 120.179 66.9913C120.21 66.9975 120.233 67.0037 120.263 67.0161C120.286 67.0223 120.317 67.0347 120.347 67.0409C120.37 67.0533 120.393 67.0595 120.416 67.0657C120.446 67.0781 120.477 67.0905 120.5 67.1029C120.522 67.1153 120.545 67.1215 120.568 67.1339C120.599 67.1463 120.621 67.1587 120.644 67.1711C120.66 67.1773 120.675 67.1835 120.682 67.1897C121.117 67.4376 121.406 67.822 121.475 68.2436H120.804C119.798 68.2436 118.937 68.6032 117.939 68.628V68.6342C117.939 69.7998 118.891 70.2833 119.608 70.2833ZM119.135 66.9851C118.221 66.9851 117.962 67.7848 117.946 68.535C118.914 68.504 119.76 68.163 120.736 68.1506C120.682 67.946 120.583 67.7538 120.446 67.5802C120.408 67.5306 120.362 67.4872 120.324 67.45C120.317 67.4438 120.301 67.4314 120.294 67.4252C120.263 67.3942 120.225 67.3632 120.187 67.3322C120.172 67.326 120.157 67.3136 120.149 67.3074C120.103 67.2765 120.057 67.2455 120.004 67.2145C119.951 67.1835 119.897 67.1587 119.844 67.1401C119.836 67.1339 119.821 67.1277 119.806 67.1215C119.768 67.1029 119.722 67.0905 119.676 67.0719C119.669 67.0719 119.654 67.0657 119.646 67.0657C119.593 67.0471 119.539 67.0347 119.486 67.0223C119.478 67.0223 119.463 67.0161 119.455 67.0161C119.41 67.0099 119.372 67.0037 119.326 66.9975C119.311 66.9975 119.295 66.9913 119.288 66.9913C119.234 66.9851 119.181 66.9851 119.135 66.9851Z" fill="black"/>
</g>
<defs>
<linearGradient id="paint0_linear_279_224" x1="85.9567" y1="4.47014" x2="86.997" y2="28.6542" gradientUnits="userSpaceOnUse">
<stop stop-color="#EFC6CA"/>
<stop offset="1" stop-color="#D8B6CE"/>
</linearGradient>
<linearGradient id="paint1_linear_279_224" x1="59.8111" y1="21.7791" x2="72.9087" y2="34.4676" gradientUnits="userSpaceOnUse">
<stop stop-color="#E4C0CA"/>
<stop offset="0.517361" stop-color="#9F9CCB"/>
<stop offset="1" stop-color="#748AB3" stop-opacity="0.89"/>
</linearGradient>
<linearGradient id="paint2_linear_279_224" x1="76.819" y1="1.78114" x2="77.2643" y2="29.3966" gradientUnits="userSpaceOnUse">
<stop stop-color="#2B7497"/>
<stop offset="0.541667" stop-color="#B0A5CD"/>
<stop offset="0.984375" stop-color="#E7BBC8" stop-opacity="0.42"/>
</linearGradient>
<linearGradient id="paint3_linear_279_224" x1="76.2475" y1="20.5211" x2="77.0508" y2="29.4113" gradientUnits="userSpaceOnUse">
<stop stop-color="#2B7497"/>
<stop offset="0.984375" stop-color="#6689AF" stop-opacity="0.37"/>
</linearGradient>
<clipPath id="clip0_279_224">
<rect width="150" height="71.2975" fill="white" transform="translate(0 0.699768)"/>
</clipPath>
</defs>
</svg>
